<svg xmlns="http://www.w3.org/2000/svg" width="35.934" height="31.955" viewBox="0 0 35.934 31.955">
  <g id="biohazard" transform="translate(-0.058 -0.059)">
    <path id="Shape" d="M20.793,30.532a10.3,10.3,0,0,1-2.826-2.5,10.3,10.3,0,0,1-2.826,2.5,10.217,10.217,0,0,1-7.188,1.229.5.5,0,0,1-.405-.5.515.515,0,0,1,.4-.5,7.328,7.328,0,0,0,2.233-.836,7.779,7.779,0,0,0,2.74-10.476A7.4,7.4,0,0,0,2.693,16.637,7.442,7.442,0,0,0,.871,18.2a.488.488,0,0,1-.624.1.52.52,0,0,1-.219-.612,10.677,10.677,0,0,1,4.636-5.765,10.17,10.17,0,0,1,3.451-1.242,10.7,10.7,0,0,1-.625-3.506,10.9,10.9,0,0,1,2.559-7,.49.49,0,0,1,.624-.113A.517.517,0,0,1,10.9.671a7.865,7.865,0,0,0-.412,2.4,7.585,7.585,0,0,0,7.487,7.668A7.6,7.6,0,0,0,25.048.671a.517.517,0,0,1,.225-.606A.49.49,0,0,1,25.9.178a10.86,10.86,0,0,1,2.558,7,10.867,10.867,0,0,1-.624,3.506,10.129,10.129,0,0,1,3.451,1.242A10.582,10.582,0,0,1,35.9,17.691a.517.517,0,0,1-.219.612.488.488,0,0,1-.624-.1,7.581,7.581,0,0,0-1.822-1.566,7.4,7.4,0,0,0-10.227,2.807,7.779,7.779,0,0,0,2.74,10.476,7.109,7.109,0,0,0,2.233.836.515.515,0,0,1-.005,1,10.308,10.308,0,0,1-1.988.194A10.2,10.2,0,0,1,20.793,30.532ZM5.014,17.8a5.1,5.1,0,0,1,1.4-.194,5.222,5.222,0,0,1,1.647.287,9.91,9.91,0,0,0,3.675,6.838,5.678,5.678,0,0,1-1.528,2.645A13,13,0,0,1,5.014,17.8ZM24.2,24.717A9.913,9.913,0,0,0,27.862,17.9a5.337,5.337,0,0,1,1.66-.293,5.208,5.208,0,0,1,1.385.187,12.955,12.955,0,0,1-5.179,9.577A5.708,5.708,0,0,1,24.2,24.717ZM17.967,6.991a10,10,0,0,0-3.276.593,5.6,5.6,0,0,1-1.84-2.54A12.955,12.955,0,0,1,23.1,5.051a5.6,5.6,0,0,1-1.84,2.54A9.945,9.945,0,0,0,17.967,6.991Z" transform="translate(0.058 0.059)" fill="#ff4f4f"/>
  </g>
</svg>
