<svg id="handshake" xmlns="http://www.w3.org/2000/svg" width="36" height="21.951" viewBox="0 0 36 21.951">
  <path id="Shape" d="M19.4,21.474l-1.007-.886-.011.012a3.561,3.561,0,0,1-5.062.531l-5.09-4.68H7.2V3.657L10.277.537A1.782,1.782,0,0,1,11.548,0h4.714l-4.6,4.28a4.162,4.162,0,0,0-.248,5.811,4.012,4.012,0,0,0,5.721.251l1.688-1.571,8.4,6.925a1.852,1.852,0,0,1,.258,2.578l-.535.669a1.778,1.778,0,0,1-2.531.268l-.3-.251-1.766,2.2a2.076,2.076,0,0,1-1.626.786A2.052,2.052,0,0,1,19.4,21.474Zm13-3.182a1.813,1.813,0,0,1-1.8-1.829V3.668H36V18.292ZM0,18.285V3.668H5.4V16.457a1.812,1.812,0,0,1-1.8,1.828Zm28.35-4.011L20.16,7.52l1.468-1.366a.924.924,0,0,0,.057-1.292.894.894,0,0,0-1.272-.057L15.918,8.988c-.005.006-.016.006-.023.012a2.32,2.32,0,0,1-3.155-.154,2.3,2.3,0,0,1,.118-3.2c.006-.005.012-.017.017-.023L18.405.48A1.783,1.783,0,0,1,19.62,0h4.832a1.773,1.773,0,0,1,1.271.537l3.072,3.119V14.714A4.2,4.2,0,0,0,28.35,14.274Z" fill="#ff4f4f"/>
</svg>
