<svg xmlns="http://www.w3.org/2000/svg" width="36" height="36" viewBox="0 0 36 36">
  <path id="Shape" d="M10.956,36C4.431,35.731,1.408,32.525.184,30.633a1.132,1.132,0,0,1,.669-1.715l10.117-2.532A28.708,28.708,0,0,1,8.234,24.08,18.4,18.4,0,0,1,2.251,11.008,18.99,18.99,0,0,1,4.079,2.873a1.123,1.123,0,0,1,2.039.063A19.1,19.1,0,0,0,22.5,14.306V10.13A5.629,5.629,0,0,1,28.125,4.5H36L33.75,9V20.255A11.241,11.241,0,0,1,22.5,31.5H17.094l-4.585,3.945A2.262,2.262,0,0,1,11.037,36Zm.1-29.525A18.966,18.966,0,0,1,14.492.391a1.12,1.12,0,0,1,1.955.583,19.049,19.049,0,0,0,3.8,8.8v1.976A16.9,16.9,0,0,1,11.054,6.473Z" transform="translate(0 0)" fill="#ff4f4f"/>
</svg>
